<svg width="600" height="30" viewBox="0 0 600 30" fill="none" xmlns="http://www.w3.org/2000/svg">
  <mask id="m">
    <rect width="600" height="8" rx="4" fill="white"/>
  </mask>
  <g mask="url(#m)">
    <rect x="0" width="278" height="8" fill="#F05138"><title>Swift 46.4%</title></rect>
    <rect x="278" width="246" height="8" fill="#3178C6"><title>TypeScript 40.9%</title></rect>
    <rect x="524" width="37" height="8" fill="#FFD43B"><title>Python 6.2%</title></rect>
    <rect x="561" width="35" height="8" fill="#F1E05A"><title>JavaScript 5.8%</title></rect>
    <rect x="596" width="2" height="8" fill="#F34B7D"><title>C++ 0.4%</title></rect>
    <rect x="598" width="1" height="8" fill="#512BD4"><title>C# 0.2%</title></rect>
    <rect x="599" width="1" height="8" fill="#4F5D95"><title>PHP 0.1%</title></rect>
  </g>
  <g transform="translate(0, 20)">
    <circle cx="4" cy="4" r="4" fill="#F05138"/>
    <text x="12" y="7" font-family="system-ui, -apple-system, sans-serif" font-size="11" fill="#777">Swift 46.4%</text>
    <circle cx="94" cy="4" r="4" fill="#3178C6"/>
    <text x="102" y="7" font-family="system-ui, -apple-system, sans-serif" font-size="11" fill="#777">TypeScript 40.9%</text>
    <circle cx="210" cy="4" r="4" fill="#FFD43B"/>
    <text x="218" y="7" font-family="system-ui, -apple-system, sans-serif" font-size="11" fill="#777">Python 6.2%</text>
    <circle cx="296" cy="4" r="4" fill="#F1E05A"/>
    <text x="304" y="7" font-family="system-ui, -apple-system, sans-serif" font-size="11" fill="#777">JavaScript 5.8%</text>
    <circle cx="400" cy="4" r="4" fill="#F34B7D"/>
    <text x="408" y="7" font-family="system-ui, -apple-system, sans-serif" font-size="11" fill="#777">C++ 0.4%</text>
    <circle cx="466" cy="4" r="4" fill="#512BD4"/>
    <text x="474" y="7" font-family="system-ui, -apple-system, sans-serif" font-size="11" fill="#777">C# 0.2%</text>
    <circle cx="524" cy="4" r="4" fill="#4F5D95"/>
    <text x="532" y="7" font-family="system-ui, -apple-system, sans-serif" font-size="11" fill="#777">PHP 0.1%</text>
  </g>
</svg>
